#tb 0: 1/1000
#tb 1: 1/22050
0,          0,          0,        0,      734, 0x5a042c2c
1,          0,          0,      512,     1024, 0x00000000
1,        507,        507,      512,     1024, 0x00000000
1,       1014,       1014,      512,     1024, 0xd89a448e
1,       1521,       1521,      512,     1024, 0x695b369c
1,       2029,       2029,      512,     1024, 0xc8ba5707
0,        111,        111,        0,      763, 0xb5893f2f
1,       2558,       2558,      512,     1024, 0xdf241fc6
1,       3065,       3065,      512,     1024, 0x61cf4166
1,       3572,       3572,      512,     1024, 0x97cbc386
1,       4079,       4079,      512,     1024, 0x44899d04
1,       4586,       4586,      512,     1024, 0xa7cbaa62
0,        222,        222,        0,     3023, 0x0f3907d3
1,       5116,       5116,      512,     1024, 0xa7aea60c
1,       5623,       5623,      512,     1024, 0xd7b18a89
1,       6130,       6130,      512,     1024, 0x268e81f6
1,       6637,       6637,      512,     1024, 0x9cf83a2f
1,       7166,       7166,      512,     1024, 0x5559b508
0,        333,        333,        0,     4800, 0x22e6e18a
1,       7673,       7673,      512,     1024, 0xe1b9e71c
1,       8181,       8181,      512,     1024, 0xdcee733e
1,       8688,       8688,      512,     1024, 0xe5918f60
1,       9195,       9195,      512,     1024, 0x29dbd209
1,       9724,       9724,      512,     1024, 0x9bcbcf16
0,        444,        444,        0,     6417, 0x427adde5
1,      10231,      10231,      512,     1024, 0x86f5f458
1,      10738,      10738,      512,     1024, 0xabcbda86
1,      11246,      11246,      512,     1024, 0xc51f77b9
1,      11775,      11775,      512,     1024, 0xf6b3a504
0,        555,        555,        0,     6776, 0x7a74c6ad
1,      12282,      12282,      512,     1024, 0x1af3e40e
1,      12789,      12789,      512,     1024, 0x3866b03b
1,      13296,      13296,      512,     1024, 0xbc005403
1,      13803,      13803,      512,     1024, 0xe9dfcc51
1,      14333,      14333,      512,     1024, 0x83c837cb
0,        666,        666,        0,     6808, 0x1f6eb7c3
1,      14840,      14840,      512,     1024, 0xfa649580
1,      15347,      15347,      512,     1024, 0x519452ea
1,      15854,      15854,      512,     1024, 0xd4978774
1,      16383,      16383,      512,     1024, 0xe2a3b1cd
1,      16890,      16890,      512,     1024, 0x9a9472ad
0,        777,        777,        0,     6726, 0x452087e6
1,      17397,      17397,      512,     1024, 0xa12d4060
1,      17905,      17905,      512,     1024, 0x31fb0646
1,      18412,      18412,      512,     1024, 0xfc44343f
1,      18941,      18941,      512,     1024, 0x0847751a
1,      19448,      19448,      512,     1024, 0x227968a2
0,        888,        888,        0,     6829, 0xee82b109
1,      19955,      19955,      512,     1024, 0x7cce9f1c
1,      20462,      20462,      512,     1024, 0xb8356713
1,      20992,      20992,      512,     1024, 0xb29f6e6f
1,      21499,      21499,      512,     1024, 0x9e1430ab
1,      22006,      22006,      512,     1024, 0x26d85423
0,        999,        999,        0,     7055, 0xf41f1108
1,      22513,      22513,      512,     1024, 0x6496547d
1,      23020,      23020,      512,     1024, 0x316b1a86
1,      23549,      23549,      512,     1024, 0x3cd83afc
1,      24057,      24057,      512,     1024, 0x993ff633
0,       1111,       1111,        0,     6977, 0xf8fe1ede
1,      24564,      24564,      512,     1024, 0x0708d1a2
1,      25071,      25071,      512,     1024, 0xd7230db9
1,      25578,      25578,      512,     1024, 0xbb0779ca
1,      26107,      26107,      512,     1024, 0xc6094e1b
1,      26614,      26614,      512,     1024, 0x15a8b039
0,       1222,       1222,        0,     6942, 0x9ad105c6
1,      27122,      27122,      512,     1024, 0xd6dbe88c
1,      27629,      27629,      512,     1024, 0x7e8d1140
1,      28158,      28158,      512,     1024, 0xef88e525
1,      28665,      28665,      512,     1024, 0x44e21149
1,      29172,      29172,      512,     1024, 0x65b0f5f4
0,       1333,       1333,        0,     6926, 0xe239dad6
1,      29679,      29679,      512,     1024, 0xb955f687
1,      30186,      30186,      512,     1024, 0xc85fba9c
1,      30716,      30716,      512,     1024, 0xf59655ad
1,      31223,      31223,      512,     1024, 0x6de80bf1
1,      31730,      31730,      512,     1024, 0x2dcf6e41
0,       1444,       1444,        0,     6966, 0x81dcfab1
1,      32237,      32237,      512,     1024, 0xd0ddcf8a
1,      32766,      32766,      512,     1024, 0x00135c2d
1,      33273,      33273,      512,     1024, 0x697f8efd
1,      33781,      33781,      512,     1024, 0x7a9bada5
0,       1555,       1555,        0,     6896, 0x31e6cc02
1,      34288,      34288,      512,     1024, 0x0d22783c
1,      34795,      34795,      512,     1024, 0x7726d07d
1,      35324,      35324,      512,     1024, 0xa2f14f67
1,      35831,      35831,      512,     1024, 0x7f51060d
1,      36338,      36338,      512,     1024, 0xc4ec6aea
0,       1666,       1666,        0,     6889, 0x1cc1006e
1,      36846,      36846,      512,     1024, 0x9bb37ca4
1,      37375,      37375,      512,     1024, 0x9b085577
1,      37882,      37882,      512,     1024, 0x8812f8af
1,      38389,      38389,      512,     1024, 0x788f5221
1,      38896,      38896,      512,     1024, 0x3a2ce642
0,       1777,       1777,        0,     6933, 0xc303f87f
1,      39403,      39403,      512,     1024, 0x72415692
1,      39933,      39933,      512,     1024, 0xe3dcc105
1,      40440,      40440,      512,     1024, 0xb26c0599
1,      40947,      40947,      512,     1024, 0x5c9e55eb
1,      41454,      41454,      512,     1024, 0x8fe88707
0,       1888,       1888,        0,     7034, 0xb4970a20
1,      41983,      41983,      512,     1024, 0xc5d7beb6
1,      42490,      42490,      512,     1024, 0xe1d3a3b4
1,      42998,      42998,      512,     1024, 0x012da0c6
1,      43505,      43505,      512,     1024, 0x8d010922
1,      44012,      44012,      512,     1024, 0x3366eb0d
0,       1999,       1999,        0,     6961, 0xf064095d
1,      44541,      44541,      512,     1024, 0xc9381a27
1,      45048,      45048,      512,     1024, 0x0774f685
1,      45555,      45555,      512,     1024, 0xc5cae0a5
1,      46062,      46062,      512,     1024, 0xa6f4737c
0,       2111,       2111,        0,     7089, 0x5ba350f9
1,      46592,      46592,      512,     1024, 0x8fb6d0d1
1,      47099,      47099,      512,     1024, 0x05f579c2
1,      47606,      47606,      512,     1024, 0x56905d99
1,      48113,      48113,      512,     1024, 0x002ee18d
1,      48620,      48620,      512,     1024, 0xeb37ef51
0,       2222,       2222,        0,     7078, 0xa83f3e88
1,      49149,      49149,      512,     1024, 0x38025635
1,      49657,      49657,      512,     1024, 0x4fe643c8
1,      50164,      50164,      512,     1024, 0x11d66ab1
1,      50671,      50671,      512,     1024, 0xcc3051e9
1,      51178,      51178,      512,     1024, 0xcd93e854
0,       2333,       2333,        0,     7147, 0xcda66cfc
1,      51707,      51707,      512,     1024, 0x38f1196d
1,      52214,      52214,      512,     1024, 0x657a15fc
1,      52722,      52722,      512,     1024, 0x669ce2a9
1,      53229,      53229,      512,     1024, 0x95862dda
1,      53758,      53758,      512,     1024, 0x1726a7b2
0,       2444,       2444,        0,     7173, 0xb7455859
1,      54265,      54265,      512,     1024, 0xd6ece2a1
1,      54772,      54772,      512,     1024, 0x33ab9553
1,      55279,      55279,      512,     1024, 0xd50c73a6
1,      55787,      55787,      512,     1024, 0xfe25b63a
1,      56316,      56316,      512,     1024, 0x7e2959e3
0,       2555,       2555,        0,     7213, 0x97b89994
1,      56823,      56823,      512,     1024, 0xa4c07b34
1,      57330,      57330,      512,     1024, 0xd6d8f15c
1,      57837,      57837,      512,     1024, 0x1eccddd7
1,      58366,      58366,      512,     1024, 0x2b69f9cb
0,       2666,       2666,        0,     7170, 0xca8b2948
1,      58874,      58874,      512,     1024, 0x667b775f
1,      59381,      59381,      512,     1024, 0xad3b84e9
1,      59888,      59888,      512,     1024, 0x4f29fc67
1,      60395,      60395,      512,     1024, 0x8d611ab7
1,      60924,      60924,      512,     1024, 0x278966ea
0,       2777,       2777,        0,     7174, 0xc7cc6bbb
1,      61431,      61431,      512,     1024, 0xaf33812b
1,      61938,      61938,      512,     1024, 0xa55f4265
1,      62446,      62446,      512,     1024, 0x023cb51c
1,      62975,      62975,      512,     1024, 0x1d1f1005
1,      63482,      63482,      512,     1024, 0x874cccf7
0,       2888,       2888,        0,     7235, 0xc2e68d2b
1,      63989,      63989,      512,     1024, 0xda705428
1,      64496,      64496,      512,     1024, 0x48d9b440
1,      65003,      65003,      512,     1024, 0xa14e0712
1,      65533,      65533,      512,     1024, 0x7efbad1f
1,      66040,      66040,      512,     1024, 0xdb82c17f
0,       3000,       3000,        0,     7261, 0x8204a423
1,      66547,      66547,      512,     1024, 0xcbe87613
1,      67054,      67054,      512,     1024, 0x3a63df1d
1,      67583,      67583,      512,     1024, 0xd5636bba
1,      68090,      68090,      512,     1024, 0x9397af23
0,       3111,       3111,        0,     7353, 0xacc7e7c0
1,      68598,      68598,      512,     1024, 0x32a07c98
1,      69105,      69105,      512,     1024, 0x202ca667
1,      69612,      69612,      512,     1024, 0xdf969011
1,      70141,      70141,      512,     1024, 0xc434d238
1,      70648,      70648,      512,     1024, 0xe9ad7562
0,       3222,       3222,        0,     7065, 0x45035c5c
1,      71155,      71155,      512,     1024, 0xb51b6b50
1,      71663,      71663,      512,     1024, 0xe70aecd3
1,      72192,      72192,      512,     1024, 0x03c816b2
1,      72699,      72699,      512,     1024, 0x869fdf25
1,      73206,      73206,      512,     1024, 0xd40a0a62
0,       3333,       3333,        0,     7269, 0x72edbb76
1,      73713,      73713,      512,     1024, 0x5af7dd35
1,      74220,      74220,      512,     1024, 0x891ffc72
1,      74750,      74750,      512,     1024, 0x1ff68a08
1,      75257,      75257,      512,     1024, 0x5a7517a9
1,      75764,      75764,      512,     1024, 0x0f959f74
0,       3444,       3444,        0,     7220, 0xb926772f
1,      76271,      76271,      512,     1024, 0xe92a12a2
1,      76778,      76778,      512,     1024, 0x38000e55
1,      77307,      77307,      512,     1024, 0x39fbdd70
1,      77814,      77814,      512,     1024, 0xca3d9184
1,      78322,      78322,      512,     1024, 0x66c8995b
0,       3555,       3555,        0,     7326, 0x0a66c632
1,      78829,      78829,      512,     1024, 0xac25acea
1,      79358,      79358,      512,     1024, 0x3cd1046c
1,      79865,      79865,      512,     1024, 0x6a1df31c
1,      80372,      80372,      512,     1024, 0x21ca10a1
0,       3666,       3666,        0,     7225, 0xe39076ab
1,      80879,      80879,      512,     1024, 0x1aeccedc
1,      81387,      81387,      512,     1024, 0xddea1335
1,      81916,      81916,      512,     1024, 0x19f5ca9f
1,      82423,      82423,      512,     1024, 0x88e95e43
1,      82930,      82930,      512,     1024, 0x726284fe
0,       3777,       3777,        0,     7265, 0xe0209036
1,      83437,      83437,      512,     1024, 0x6b85b40e
1,      83966,      83966,      512,     1024, 0x111fee2a
1,      84474,      84474,      512,     1024, 0x3656b588
1,      84981,      84981,      512,     1024, 0xa5a2b552
1,      85488,      85488,      512,     1024, 0x38fb2467
0,       3888,       3888,        0,     7337, 0x7a5dc093
1,      85995,      85995,      512,     1024, 0xaa919ccc
1,      86524,      86524,      512,     1024, 0x15993dbc
1,      87031,      87031,      512,     1024, 0xbe01a7b9
1,      87539,      87539,      512,     1024, 0xefe93c09
1,      88046,      88046,      512,     1024, 0x1bb566e5
0,       4000,       4000,        0,     7246, 0x519a7a3c
1,      88575,      88575,      512,     1024, 0x15ce6237
1,      89082,      89082,      512,     1024, 0xa8552e66
1,      89589,      89589,      512,     1024, 0x9d80187e
1,      90096,      90096,      512,     1024, 0x5df3fc30
1,      90603,      90603,      512,     1024, 0x1a312aa5
0,       4111,       4111,        0,     7266, 0x352c8078
1,      91133,      91133,      512,     1024, 0x6bb8e302
1,      91640,      91640,      512,     1024, 0xbd9684bb
1,      92147,      92147,      512,     1024, 0x78b0b166
1,      92654,      92654,      512,     1024, 0xd9af5eae
0,       4222,       4222,        0,     7323, 0xcaf69d7c
1,      93183,      93183,      512,     1024, 0xdb90fe82
1,      93690,      93690,      512,     1024, 0x327614e9
1,      94198,      94198,      512,     1024, 0x1f19b7fe
1,      94705,      94705,      512,     1024, 0x46c53f96
1,      95212,      95212,      512,     1024, 0x921b2189
0,       4333,       4333,        0,     7309, 0x98c1e6f7
1,      95741,      95741,      512,     1024, 0xa8fbc85a
1,      96248,      96248,      512,     1024, 0xabfdaaae
1,      96755,      96755,      512,     1024, 0x6acc7387
1,      97263,      97263,      512,     1024, 0x0d9c27b5
1,      97792,      97792,      512,     1024, 0xba4dd809
0,       4444,       4444,        0,     7121, 0x913d5bd6
1,      98299,      98299,      512,     1024, 0x2a2ad521
1,      98806,      98806,      512,     1024, 0x892de38a
1,      99313,      99313,      512,     1024, 0xdc97a2eb
1,      99820,      99820,      512,     1024, 0x4f614ca4
1,     100350,     100350,      512,     1024, 0x9c8a77ea
0,       4555,       4555,      111,     7088, 0x56302362
1,     100857,     100857,      512,     1024, 0x2d30e646
1,     101364,     101364,      512,     1024, 0x74e800a7
1,     101871,     101871,      512,     1024, 0x1e01fb02
1,     102378,     102378,      512,     1024, 0x4ed2c1d8
0,       4666,       4666,      111,     7104, 0xc0d14f78
1,     102907,     102907,      512,     1024, 0xf2fdbe63
1,     103415,     103415,      512,     1024, 0x8d6f63a1
1,     103922,     103922,      512,     1024, 0xded468d9
1,     104429,     104429,      512,     1024, 0xccad839e
1,     104958,     104958,      512,     1024, 0xdde7c082
0,       4777,       4777,      111,     7169, 0xd03c825b
1,     105465,     105465,      512,     1024, 0x548613c5
1,     105972,     105972,      512,     1024, 0x383909bd
1,     106479,     106479,      512,     1024, 0xfd37627b
1,     106987,     106987,      512,     1024, 0x6d95a481
1,     107516,     107516,      512,     1024, 0x56aa87fa
0,       4888,       4888,      111,     7038, 0x1ecc201d
1,     108023,     108023,      512,     1024, 0x7b67258c
1,     108530,     108530,      512,     1024, 0x7dd99a92
1,     109037,     109037,      512,     1024, 0x4a66d102
1,     109566,     109566,      512,     1024, 0x7b3fce51
1,     110074,     110074,      512,     1024, 0xbbd968aa
0,       5000,       5000,      111,     7015, 0x83c94454
1,     110581,     110581,      512,     1024, 0x8283ec36
1,     111088,     111088,      512,     1024, 0x3c96493d
1,     111595,     111595,      512,     1024, 0xfa4f8cf8
1,     112124,     112124,      512,     1024, 0xe2cf872d
1,     112631,     112631,      512,     1024, 0x0a9e7aa6
0,       5111,       5111,      111,     6983, 0x9e51f54d
1,     113139,     113139,      512,     1024, 0x6e7a0550
1,     113646,     113646,      512,     1024, 0x3acfea2f
1,     114175,     114175,      512,     1024, 0x7111d0fa
1,     114682,     114682,      512,     1024, 0xe9a1eca9
0,       5222,       5222,      111,     7088, 0x70d33de1
1,     115189,     115189,      512,     1024, 0x24da6c46
1,     115696,     115696,      512,     1024, 0x117cff37
1,     116204,     116204,      512,     1024, 0x0f27cab6
1,     116733,     116733,      512,     1024, 0x69b6b4e6
1,     117240,     117240,      512,     1024, 0x1e6cc841
0,       5333,       5333,      111,     7096, 0x4d0f81b5
1,     117747,     117747,      512,     1024, 0xb01e2365
1,     118254,     118254,      512,     1024, 0x14e200d3
1,     118783,     118783,      512,     1024, 0xd1184c98
1,     119291,     119291,      512,     1024, 0xef9140e9
1,     119798,     119798,      512,     1024, 0x4cbb645e
0,       5444,       5444,      111,     7106, 0xd1a83ddc
1,     120305,     120305,      512,     1024, 0xe7fe2f06
1,     120812,     120812,      512,     1024, 0xf8c45028
1,     121341,     121341,      512,     1024, 0x561358f4
1,     121848,     121848,      512,     1024, 0xd0129b77
1,     122355,     122355,      512,     1024, 0xcc636e88
0,       5555,       5555,      111,     7219, 0x20f47fe4
1,     122863,     122863,      512,     1024, 0xe9406321
1,     123392,     123392,      512,     1024, 0x9f16a041
1,     123899,     123899,      512,     1024, 0x468bf409
1,     124406,     124406,      512,     1024, 0x3df70f7b
1,     124913,     124913,      512,     1024, 0xa880b11b
0,       5666,       5666,      111,     7184, 0x45dc6a0e
1,     125420,     125420,      512,     1024, 0x3286c489
1,     125950,     125950,      512,     1024, 0x39fe9ebc
1,     126457,     126457,      512,     1024, 0xc533d83b
1,     126964,     126964,      512,     1024, 0x153b195d
0,       5777,       5777,      111,     7222, 0x488c6499
1,     127471,     127471,      512,     1024, 0xd84786a1
1,     127978,     127978,      512,     1024, 0xdc295aaa
1,     128507,     128507,      512,     1024, 0xfb764d8c
1,     129015,     129015,      512,     1024, 0xeebc9db9
1,     129522,     129522,      512,     1024, 0x7ba9403e
0,       5888,       5888,      111,     7254, 0xbd097ba7
1,     130029,     130029,      512,     1024, 0x4e5571ec
1,     130558,     130558,      512,     1024, 0xd965fad4
1,     131065,     131065,      512,     1024, 0x87e259f2
1,     131572,     131572,      512,     1024, 0xae7e533b
1,     132080,     132080,      512,     1024, 0x313cf4d6
0,       6000,       6000,      111,     7189, 0x46e06d43
1,     132587,     132587,      512,     1024, 0xe1844c90
1,     133116,     133116,      512,     1024, 0xbb057b44
1,     133623,     133623,      512,     1024, 0xa5099687
1,     134130,     134130,      512,     1024, 0xbff10707
1,     134637,     134637,      512,     1024, 0x37c4ffc0
0,       6111,       6111,      111,     7283, 0x19dd7319
1,     135167,     135167,      512,     1024, 0xf9fb6caa
1,     135674,     135674,      512,     1024, 0x3b6a3a1f
1,     136181,     136181,      512,     1024, 0x83431edb
1,     136688,     136688,      512,     1024, 0x1eb713cf
1,     137195,     137195,      512,     1024, 0xd7b07a6d
0,       6222,       6222,      111,     7161, 0x23171d02
1,     137724,     137724,      512,     1024, 0x81ae3391
1,     138231,     138231,      512,     1024, 0xf150130a
1,     138739,     138739,      512,     1024, 0x09678eaa
1,     139246,     139246,      512,     1024, 0xb94e06f1
0,       6333,       6333,      111,     6976, 0xcc610c26
1,     139775,     139775,      512,     1024, 0x67b1dbc9
1,     140282,     140282,      512,     1024, 0xd6edc235
1,     140789,     140789,      512,     1024, 0x34e4c499
1,     141296,     141296,      512,     1024, 0xeefd89c0
1,     141804,     141804,      512,     1024, 0x38afdaf1
0,       6444,       6444,      111,     7056, 0x6cd917b0
1,     142333,     142333,      512,     1024, 0x29a60d76
1,     142840,     142840,      512,     1024, 0xe28a4372
1,     143347,     143347,      512,     1024, 0x7089454d
1,     143854,     143854,      512,     1024, 0x0c01bb7b
1,     144383,     144383,      512,     1024, 0xbd776a72
0,       6555,       6555,      111,     6736, 0x02b78951
1,     144891,     144891,      512,     1024, 0x86776fd0
1,     145398,     145398,      512,     1024, 0xb37c88f7
1,     145905,     145905,      512,     1024, 0x5f90aaf8
1,     146412,     146412,      512,     1024, 0x203d4222
1,     146941,     146941,      512,     1024, 0x382692a6
0,       6666,       6666,      111,     6540, 0x767e0854
1,     147448,     147448,      512,     1024, 0xf37c95fd
1,     147956,     147956,      512,     1024, 0x6c0b8877
1,     148463,     148463,      512,     1024, 0x2e54a8b6
1,     148992,     148992,      512,     1024, 0x7f266488
0,       6777,       6777,      111,     6170, 0xc84962fb
1,     149499,     149499,      512,     1024, 0xfbf20f9a
1,     150006,     150006,      512,     1024, 0xf2985cc0
1,     150513,     150513,      512,     1024, 0xc7075340
1,     151020,     151020,      512,     1024, 0xe4585695
1,     151550,     151550,      512,     1024, 0xbdffa380
0,       6888,       6888,      111,     6169, 0x27e06c03
1,     152057,     152057,      512,     1024, 0x2422a8a9
1,     152564,     152564,      512,     1024, 0x59cbd75f
1,     153071,     153071,      512,     1024, 0x04ad1a8c
1,     153578,     153578,      512,     1024, 0x33c09191
1,     154107,     154107,      512,     1024, 0x55efa6fd
0,       7000,       7000,      111,     5864, 0xd14db83f
1,     154615,     154615,      512,     1024, 0xf73d0e5d
1,     155122,     155122,      512,     1024, 0x6141ebae
1,     155629,     155629,      512,     1024, 0x7db17a68
1,     156158,     156158,      512,     1024, 0xa6c690b6
1,     156665,     156665,      512,     1024, 0xa6fd6725
0,       7111,       7111,      111,     5375, 0x4a21055d
1,     157172,     157172,      512,     1024, 0x50a90b9b
1,     157680,     157680,      512,     1024, 0xef990dc8
1,     158187,     158187,      512,     1024, 0x75adf6b5
1,     158716,     158716,      512,     1024, 0x61eac43e
1,     159223,     159223,      512,     1024, 0x67797a19
0,       7222,       7222,      111,     5206, 0x95ead3cb
1,     159730,     159730,      512,     1024, 0xf325277a
1,     160237,     160237,      512,     1024, 0x18bf254a
1,     160767,     160767,      512,     1024, 0x2ce6bee3
1,     161274,     161274,      512,     1024, 0x8d320860
0,       7333,       7333,      111,     5220, 0xcfdcc37e
1,     161781,     161781,      512,     1024, 0xc979b6e8
1,     162288,     162288,      512,     1024, 0xdb644b41
1,     162795,     162795,      512,     1024, 0xe1b368ba
1,     163324,     163324,      512,     1024, 0xacc53d15
1,     163832,     163832,      512,     1024, 0x42ea8c18
0,       7444,       7444,      111,     4946, 0x2d864a77
1,     164339,     164339,      512,     1024, 0xe52c99a4
1,     164846,     164846,      512,     1024, 0xd7db54a6
1,     165375,     165375,      512,     1024, 0x7f27a7e3
1,     165882,     165882,      512,     1024, 0xf7ffeaa9
1,     166389,     166389,      512,     1024, 0x792b6088
0,       7555,       7555,      111,     4390, 0x2ab9f462
1,     166896,     166896,      512,     1024, 0x61d99724
1,     167404,     167404,      512,     1024, 0x5213720e
1,     167933,     167933,      512,     1024, 0xac09dd30
1,     168440,     168440,      512,     1024, 0x960bf6bb
1,     168947,     168947,      512,     1024, 0xc90168e1
0,       7666,       7666,      111,     4051, 0x1d09592e
1,     169454,     169454,      512,     1024, 0x43b45768
1,     169983,     169983,      512,     1024, 0x935d60a1
1,     170491,     170491,      512,     1024, 0x9a342ef2
1,     170998,     170998,      512,     1024, 0xc894709f
0,       7777,       7777,      111,     3680, 0x39bd6a12
1,     171505,     171505,      512,     1024, 0x59b43b07
1,     172012,     172012,      512,     1024, 0x36a1a98d
1,     172541,     172541,      512,     1024, 0x9e1a121c
1,     173048,     173048,      512,     1024, 0x02208b78
1,     173556,     173556,      512,     1024, 0xd1d7b274
0,       7888,       7888,      111,     2910, 0x6337ece9
1,     174063,     174063,      512,     1024, 0xdacd5096
1,     174592,     174592,      512,     1024, 0x51b71ead
1,     175099,     175099,      512,     1024, 0xd009a7ca
1,     175606,     175606,      512,     1024, 0xb6d5a938
1,     176113,     176113,      512,     1024, 0xf3d45e47
0,       8000,       8000,      111,     2153, 0xf4e3bc17
1,     176621,     176621,      512,     1024, 0xea8e04fc
1,     177150,     177150,      512,     1024, 0x0b928bd8
1,     177657,     177657,      512,     1024, 0x0f02caec
1,     178164,     178164,      512,     1024, 0xe2b137a8
1,     178671,     178671,      512,     1024, 0xd5f94892
